<svg width="1312" height="713" viewBox="0 0 1312 713" fill="none" xmlns="http://www.w3.org/2000/svg">
<mask id="path-1-inside-1_38_466" fill="white">
<path fill-rule="evenodd" clip-rule="evenodd" d="M81 0C77.134 0 74 3.13401 74 7V133C74 136.866 77.134 140 81 140H97.6372V205.7C40.9308 224.392 0 277.799 0 340.766C0 403.733 40.9307 457.14 97.6372 475.833V541.532H39.9525C36.0865 541.532 32.9525 544.666 32.9525 548.532V705.397C32.9525 709.263 36.0866 712.397 39.9525 712.397H995.002C998.868 712.397 1002 709.263 1002 705.397V548.532C1002 544.666 998.868 541.532 995.002 541.532H186.731V475.833C229.426 461.759 263.178 428.007 277.251 385.312H342.951V419.808C342.951 423.674 346.085 426.808 349.951 426.808H1305C1308.87 426.808 1312 423.674 1312 419.808V262.943C1312 259.077 1308.87 255.943 1305 255.943H349.951C346.085 255.943 342.951 259.077 342.951 262.943V296.219H277.25C263.177 253.525 229.425 219.774 186.731 205.7V140H202C205.866 140 209 136.866 209 133V7C209 3.13401 205.866 0 202 0H81Z"/>
</mask>
<path fill-rule="evenodd" clip-rule="evenodd" d="M81 0C77.134 0 74 3.13401 74 7V133C74 136.866 77.134 140 81 140H97.6372V205.7C40.9308 224.392 0 277.799 0 340.766C0 403.733 40.9307 457.14 97.6372 475.833V541.532H39.9525C36.0865 541.532 32.9525 544.666 32.9525 548.532V705.397C32.9525 709.263 36.0866 712.397 39.9525 712.397H995.002C998.868 712.397 1002 709.263 1002 705.397V548.532C1002 544.666 998.868 541.532 995.002 541.532H186.731V475.833C229.426 461.759 263.178 428.007 277.251 385.312H342.951V419.808C342.951 423.674 346.085 426.808 349.951 426.808H1305C1308.87 426.808 1312 423.674 1312 419.808V262.943C1312 259.077 1308.87 255.943 1305 255.943H349.951C346.085 255.943 342.951 259.077 342.951 262.943V296.219H277.25C263.177 253.525 229.425 219.774 186.731 205.7V140H202C205.866 140 209 136.866 209 133V7C209 3.13401 205.866 0 202 0H81Z" fill="#DEDEDE"/>
<path d="M97.6372 140H100.637V137H97.6372V140ZM97.6372 205.7L98.5764 208.55L100.637 207.87V205.7H97.6372ZM97.6372 475.833H100.637V473.663L98.5764 472.983L97.6372 475.833ZM97.6372 541.532V544.532H100.637V541.532H97.6372ZM186.731 541.532H183.731V544.532H186.731V541.532ZM186.731 475.833L185.792 472.983L183.731 473.663V475.833H186.731ZM277.251 385.312V382.312H275.081L274.401 384.373L277.251 385.312ZM342.951 385.312H345.951V382.312H342.951V385.312ZM342.951 296.219V299.219H345.951V296.219H342.951ZM277.25 296.219L274.401 297.158L275.08 299.219H277.25V296.219ZM186.731 205.7H183.731V207.87L185.792 208.55L186.731 205.7ZM186.731 140V137H183.731V140H186.731ZM77 7C77 4.79086 78.7909 3 81 3V-3C75.4772 -3 71 1.47715 71 7H77ZM77 133V7H71V133H77ZM81 137C78.7909 137 77 135.209 77 133H71C71 138.523 75.4772 143 81 143V137ZM97.6372 137H81V143H97.6372V137ZM100.637 205.7V140H94.6372V205.7H100.637ZM96.6981 202.851C38.7984 221.937 -3 276.466 -3 340.766H3C3 279.133 43.0632 226.848 98.5764 208.55L96.6981 202.851ZM-3 340.766C-3 405.067 38.7983 459.596 96.698 478.682L98.5764 472.983C43.0631 454.685 3 402.4 3 340.766H-3ZM94.6372 475.833V541.532H100.637V475.833H94.6372ZM97.6372 538.532H39.9525V544.532H97.6372V538.532ZM39.9525 538.532C34.4297 538.532 29.9525 543.009 29.9525 548.532H35.9525C35.9525 546.323 37.7434 544.532 39.9525 544.532V538.532ZM29.9525 548.532V705.397H35.9525V548.532H29.9525ZM29.9525 705.397C29.9525 710.92 34.4297 715.397 39.9525 715.397V709.397C37.7434 709.397 35.9525 707.606 35.9525 705.397H29.9525ZM39.9525 715.397H995.002V709.397H39.9525V715.397ZM995.002 715.397C1000.52 715.397 1005 710.92 1005 705.397H999.002C999.002 707.606 997.211 709.397 995.002 709.397V715.397ZM1005 705.397V548.532H999.002V705.397H1005ZM1005 548.532C1005 543.009 1000.52 538.532 995.002 538.532V544.532C997.211 544.532 999.002 546.323 999.002 548.532H1005ZM995.002 538.532H186.731V544.532H995.002V538.532ZM189.731 541.532V475.833H183.731V541.532H189.731ZM187.67 478.682C231.268 464.311 265.729 429.85 280.1 386.252L274.401 384.373C260.626 426.164 227.583 459.208 185.792 472.983L187.67 478.682ZM277.251 388.312H342.951V382.312H277.251V388.312ZM339.951 385.312V419.808H345.951V385.312H339.951ZM339.951 419.808C339.951 425.331 344.428 429.808 349.951 429.808V423.808C347.742 423.808 345.951 422.017 345.951 419.808H339.951ZM349.951 429.808H1305V423.808H349.951V429.808ZM1305 429.808C1310.52 429.808 1315 425.331 1315 419.808H1309C1309 422.017 1307.21 423.808 1305 423.808V429.808ZM1315 419.808V262.943H1309V419.808H1315ZM1315 262.943C1315 257.42 1310.52 252.943 1305 252.943V258.943C1307.21 258.943 1309 260.734 1309 262.943H1315ZM1305 252.943H349.951V258.943H1305V252.943ZM349.951 252.943C344.428 252.943 339.951 257.42 339.951 262.943H345.951C345.951 260.734 347.742 258.943 349.951 258.943V252.943ZM339.951 262.943V296.219H345.951V262.943H339.951ZM342.951 293.219H277.25V299.219H342.951V293.219ZM280.099 295.279C265.728 251.682 231.268 217.222 187.67 202.851L185.792 208.55C227.582 222.325 260.625 255.367 274.401 297.158L280.099 295.279ZM183.731 140V205.7H189.731V140H183.731ZM202 137H186.731V143H202V137ZM206 133C206 135.209 204.209 137 202 137V143C207.523 143 212 138.523 212 133H206ZM206 7V133H212V7H206ZM202 3C204.209 3 206 4.79086 206 7H212C212 1.47715 207.523 -3 202 -3V3ZM81 3H202V-3H81V3Z" fill="black" mask="url(#path-1-inside-1_38_466)"/>
</svg>
